<svg width="28" height="28" viewBox="0 0 28 28" fill="none" xmlns="http://www.w3.org/2000/svg">
<path d="M22.7514 11.375C22.7514 13.8852 21.9365 16.2039 20.5639 18.0852L27.4873 25.0141C28.1709 25.6977 28.1709 26.8078 27.4873 27.4914C26.8037 28.175 25.6936 28.175 25.01 27.4914L18.0865 20.5625C16.2053 21.9406 13.8865 22.75 11.3764 22.75C5.09278 22.75 0.00137329 17.6586 0.00137329 11.375C0.00137329 5.09141 5.09278 0 11.3764 0C17.66 0 22.7514 5.09141 22.7514 11.375ZM11.3764 19.25C12.4105 19.25 13.4346 19.0463 14.39 18.6506C15.3454 18.2548 16.2136 17.6747 16.9448 16.9435C17.6761 16.2122 18.2562 15.3441 18.6519 14.3886C19.0477 13.4332 19.2514 12.4092 19.2514 11.375C19.2514 10.3408 19.0477 9.31681 18.6519 8.36137C18.2562 7.40593 17.6761 6.53779 16.9448 5.80653C16.2136 5.07527 15.3454 4.4952 14.39 4.09945C13.4346 3.70369 12.4105 3.5 11.3764 3.5C10.3422 3.5 9.31818 3.70369 8.36274 4.09945C7.4073 4.4952 6.53917 5.07527 5.80791 5.80653C5.07665 6.53779 4.49658 7.40593 4.10082 8.36137C3.70507 9.31681 3.50137 10.3408 3.50137 11.375C3.50137 12.4092 3.70507 13.4332 4.10082 14.3886C4.49658 15.3441 5.07665 16.2122 5.80791 16.9435C6.53917 17.6747 7.4073 18.2548 8.36274 18.6506C9.31818 19.0463 10.3422 19.25 11.3764 19.25Z" fill="white"/>
</svg>
