<svg width="28" height="24" viewBox="0 0 28 24" fill="none" xmlns="http://www.w3.org/2000/svg">
<path d="M0 2.00208C0 0.895825 0.89375 0.0020752 2 0.0020752H26C27.1063 0.0020752 28 0.895825 28 2.00208C28 3.10833 27.1063 4.00208 26 4.00208H2C0.89375 4.00208 0 3.10833 0 2.00208ZM0 12.0021C0 10.8958 0.89375 10.0021 2 10.0021H26C27.1063 10.0021 28 10.8958 28 12.0021C28 13.1083 27.1063 14.0021 26 14.0021H2C0.89375 14.0021 0 13.1083 0 12.0021ZM28 22.0021C28 23.1083 27.1063 24.0021 26 24.0021H2C0.89375 24.0021 0 23.1083 0 22.0021C0 20.8958 0.89375 20.0021 2 20.0021H26C27.1063 20.0021 28 20.8958 28 22.0021Z" fill="white"/>
</svg>
